<mxfile host="app.diagrams.net" modified="2022-05-23T10:54:49.026Z" agent="5.0 (Windows NT 10.0; Win64; x64) AppleWebKit/537.36 (KHTML, like Gecko) Chrome/101.0.4951.67 Safari/537.36" etag="_CxbyWaEfkvU3n3iXM2m" version="17.4.6" type="github">
  <diagram id="uNiin1p28FXvzOr4Q-Mt" name="Page-1">
    <mxGraphModel dx="1240" dy="621" grid="1" gridSize="10" guides="1" tooltips="1" connect="1" arrows="1" fold="1" page="1" pageScale="1" pageWidth="850" pageHeight="1100" math="0" shadow="0">
      <root>
        <mxCell id="0" />
        <mxCell id="1" parent="0" />
        <mxCell id="Ab6jjdtZbgk7P4JCKkUc-1" value="activity diagram user menambahkan produk ke menu favorit" style="shape=umlFrame;whiteSpace=wrap;html=1;width=210;height=30;" vertex="1" parent="1">
          <mxGeometry x="130" y="40" width="670" height="600" as="geometry" />
        </mxCell>
        <mxCell id="Ab6jjdtZbgk7P4JCKkUc-2" value="User" style="swimlane;" vertex="1" parent="1">
          <mxGeometry x="240" y="80" width="210" height="520" as="geometry" />
        </mxCell>
        <mxCell id="Ab6jjdtZbgk7P4JCKkUc-7" value="System" style="swimlane;startSize=23;" vertex="1" parent="1">
          <mxGeometry x="450" y="80" width="220" height="520" as="geometry" />
        </mxCell>
        <mxCell id="Ab6jjdtZbgk7P4JCKkUc-38" value="Menampilkan notifikasi berhasil" style="rounded=1;whiteSpace=wrap;html=1;fontSize=8;" vertex="1" parent="Ab6jjdtZbgk7P4JCKkUc-7">
          <mxGeometry x="51.25" y="390" width="117.5" height="45" as="geometry" />
        </mxCell>
        <mxCell id="Ab6jjdtZbgk7P4JCKkUc-39" value="" style="ellipse;html=1;shape=endState;fillColor=#000000;strokeColor=#000000;fontSize=8;" vertex="1" parent="Ab6jjdtZbgk7P4JCKkUc-7">
          <mxGeometry x="95" y="470" width="30" height="30" as="geometry" />
        </mxCell>
        <mxCell id="Ab6jjdtZbgk7P4JCKkUc-40" value="" style="endArrow=open;endFill=1;endSize=12;html=1;rounded=0;fontSize=9;" edge="1" parent="Ab6jjdtZbgk7P4JCKkUc-7" source="Ab6jjdtZbgk7P4JCKkUc-38" target="Ab6jjdtZbgk7P4JCKkUc-39">
          <mxGeometry width="160" relative="1" as="geometry">
            <mxPoint x="-81.11111111111109" y="405" as="sourcePoint" />
            <mxPoint x="61.25" y="422.6461442786069" as="targetPoint" />
            <Array as="points" />
          </mxGeometry>
        </mxCell>
        <mxCell id="Ab6jjdtZbgk7P4JCKkUc-41" value="&lt;font style=&quot;font-size: 9px&quot;&gt;Finish&lt;/font&gt;" style="text;html=1;strokeColor=none;fillColor=none;align=center;verticalAlign=middle;whiteSpace=wrap;rounded=0;" vertex="1" parent="Ab6jjdtZbgk7P4JCKkUc-7">
          <mxGeometry x="80" y="490" width="60" height="30" as="geometry" />
        </mxCell>
        <mxCell id="Ab6jjdtZbgk7P4JCKkUc-9" value="" style="ellipse;html=1;shape=startState;fillColor=#000000;strokeColor=#000000;" vertex="1" parent="1">
          <mxGeometry x="270" y="130" width="30" height="30" as="geometry" />
        </mxCell>
        <mxCell id="Ab6jjdtZbgk7P4JCKkUc-10" value="&lt;font style=&quot;font-size: 9px&quot;&gt;start&lt;/font&gt;" style="text;html=1;strokeColor=none;fillColor=none;align=center;verticalAlign=middle;whiteSpace=wrap;rounded=0;" vertex="1" parent="1">
          <mxGeometry x="255" y="150" width="60" height="30" as="geometry" />
        </mxCell>
        <mxCell id="Ab6jjdtZbgk7P4JCKkUc-11" value="" style="endArrow=open;endFill=1;endSize=12;html=1;rounded=0;fontSize=9;" edge="1" parent="1" source="Ab6jjdtZbgk7P4JCKkUc-9">
          <mxGeometry width="160" relative="1" as="geometry">
            <mxPoint x="300" y="200" as="sourcePoint" />
            <mxPoint x="345" y="210" as="targetPoint" />
            <Array as="points">
              <mxPoint x="345" y="145" />
            </Array>
          </mxGeometry>
        </mxCell>
        <mxCell id="Ab6jjdtZbgk7P4JCKkUc-13" value="" style="endArrow=open;endFill=1;endSize=12;html=1;rounded=0;fontSize=9;exitX=1;exitY=0.5;exitDx=0;exitDy=0;entryX=0.009;entryY=0.601;entryDx=0;entryDy=0;entryPerimeter=0;" edge="1" parent="1" target="Ab6jjdtZbgk7P4JCKkUc-29">
          <mxGeometry width="160" relative="1" as="geometry">
            <mxPoint x="405" y="227.5" as="sourcePoint" />
            <mxPoint x="490" y="161" as="targetPoint" />
            <Array as="points">
              <mxPoint x="440" y="228" />
              <mxPoint x="440" y="160" />
            </Array>
          </mxGeometry>
        </mxCell>
        <mxCell id="Ab6jjdtZbgk7P4JCKkUc-4" value="" style="rhombus;whiteSpace=wrap;html=1;fontSize=9;strokeColor=#000000;" vertex="1" parent="1">
          <mxGeometry x="550" y="220" width="60" height="30" as="geometry" />
        </mxCell>
        <mxCell id="Ab6jjdtZbgk7P4JCKkUc-22" value="&lt;font style=&quot;font-size: 6px&quot;&gt;User sudah terdaftar?&lt;/font&gt;" style="text;html=1;strokeColor=none;fillColor=none;align=center;verticalAlign=middle;whiteSpace=wrap;rounded=0;" vertex="1" parent="1">
          <mxGeometry x="580" y="200" width="70" height="30" as="geometry" />
        </mxCell>
        <mxCell id="Ab6jjdtZbgk7P4JCKkUc-23" value="" style="endArrow=open;endFill=1;endSize=12;html=1;rounded=0;fontSize=9;exitX=0;exitY=0.5;exitDx=0;exitDy=0;entryX=1;entryY=0.75;entryDx=0;entryDy=0;" edge="1" parent="1" source="Ab6jjdtZbgk7P4JCKkUc-4">
          <mxGeometry width="160" relative="1" as="geometry">
            <mxPoint x="415" y="237.5" as="sourcePoint" />
            <mxPoint x="405" y="236.25" as="targetPoint" />
            <Array as="points">
              <mxPoint x="450" y="238" />
            </Array>
          </mxGeometry>
        </mxCell>
        <mxCell id="Ab6jjdtZbgk7P4JCKkUc-24" value="" style="endArrow=open;endFill=1;endSize=12;html=1;rounded=0;fontSize=9;entryX=0.5;entryY=0;entryDx=0;entryDy=0;" edge="1" parent="1" source="Ab6jjdtZbgk7P4JCKkUc-4">
          <mxGeometry width="160" relative="1" as="geometry">
            <mxPoint x="560" y="245" as="sourcePoint" />
            <mxPoint x="580" y="290" as="targetPoint" />
            <Array as="points" />
          </mxGeometry>
        </mxCell>
        <mxCell id="Ab6jjdtZbgk7P4JCKkUc-25" value="" style="endArrow=open;endFill=1;endSize=12;html=1;rounded=0;fontSize=9;entryX=0.5;entryY=0;entryDx=0;entryDy=0;" edge="1" parent="1">
          <mxGeometry width="160" relative="1" as="geometry">
            <mxPoint x="579.52" y="180" as="sourcePoint" />
            <mxPoint x="579.52" y="220" as="targetPoint" />
            <Array as="points" />
          </mxGeometry>
        </mxCell>
        <mxCell id="Ab6jjdtZbgk7P4JCKkUc-26" value="&lt;font style=&quot;font-size: 8px&quot;&gt;Ya&lt;/font&gt;" style="text;html=1;strokeColor=none;fillColor=none;align=center;verticalAlign=middle;whiteSpace=wrap;rounded=0;" vertex="1" parent="1">
          <mxGeometry x="580" y="250" width="70" height="30" as="geometry" />
        </mxCell>
        <mxCell id="Ab6jjdtZbgk7P4JCKkUc-27" value="&lt;span style=&quot;font-size: 8px&quot;&gt;Tidak&lt;/span&gt;" style="text;html=1;strokeColor=none;fillColor=none;align=center;verticalAlign=middle;whiteSpace=wrap;rounded=0;" vertex="1" parent="1">
          <mxGeometry x="440" y="210" width="70" height="30" as="geometry" />
        </mxCell>
        <mxCell id="Ab6jjdtZbgk7P4JCKkUc-28" value="Login" style="rounded=1;whiteSpace=wrap;html=1;fontSize=8;" vertex="1" parent="1">
          <mxGeometry x="315" y="210" width="90" height="45" as="geometry" />
        </mxCell>
        <mxCell id="Ab6jjdtZbgk7P4JCKkUc-29" value="Verifikasi" style="rounded=1;whiteSpace=wrap;html=1;fontSize=8;" vertex="1" parent="1">
          <mxGeometry x="530" y="135" width="95" height="45" as="geometry" />
        </mxCell>
        <mxCell id="Ab6jjdtZbgk7P4JCKkUc-30" value="Menampilkan menu homepage" style="rounded=1;whiteSpace=wrap;html=1;fontSize=8;" vertex="1" parent="1">
          <mxGeometry x="521.25" y="290" width="117.5" height="45" as="geometry" />
        </mxCell>
        <mxCell id="Ab6jjdtZbgk7P4JCKkUc-31" value="Melihat produk-produk sepatu" style="rounded=1;whiteSpace=wrap;html=1;fontSize=8;" vertex="1" parent="1">
          <mxGeometry x="300" y="290" width="117.5" height="45" as="geometry" />
        </mxCell>
        <mxCell id="Ab6jjdtZbgk7P4JCKkUc-32" value="" style="endArrow=open;endFill=1;endSize=12;html=1;rounded=0;fontSize=9;" edge="1" parent="1" source="Ab6jjdtZbgk7P4JCKkUc-30" target="Ab6jjdtZbgk7P4JCKkUc-31">
          <mxGeometry width="160" relative="1" as="geometry">
            <mxPoint x="560" y="245" as="sourcePoint" />
            <mxPoint x="415" y="246.25" as="targetPoint" />
            <Array as="points" />
          </mxGeometry>
        </mxCell>
        <mxCell id="Ab6jjdtZbgk7P4JCKkUc-33" value="Menampilkan produk-produk sepatu" style="rounded=1;whiteSpace=wrap;html=1;fontSize=8;" vertex="1" parent="1">
          <mxGeometry x="521.25" y="370" width="117.5" height="45" as="geometry" />
        </mxCell>
        <mxCell id="Ab6jjdtZbgk7P4JCKkUc-34" value="" style="endArrow=open;endFill=1;endSize=12;html=1;rounded=0;fontSize=9;" edge="1" parent="1" source="Ab6jjdtZbgk7P4JCKkUc-31" target="Ab6jjdtZbgk7P4JCKkUc-33">
          <mxGeometry width="160" relative="1" as="geometry">
            <mxPoint x="531.25" y="322.5" as="sourcePoint" />
            <mxPoint x="427.5" y="322.5" as="targetPoint" />
            <Array as="points">
              <mxPoint x="359" y="390" />
            </Array>
          </mxGeometry>
        </mxCell>
        <mxCell id="Ab6jjdtZbgk7P4JCKkUc-35" value="menambahkan produk pilihan user ke menu favorti" style="rounded=1;whiteSpace=wrap;html=1;fontSize=8;" vertex="1" parent="1">
          <mxGeometry x="300" y="430" width="117.5" height="45" as="geometry" />
        </mxCell>
        <mxCell id="Ab6jjdtZbgk7P4JCKkUc-36" value="" style="endArrow=open;endFill=1;endSize=12;html=1;rounded=0;fontSize=9;entryX=1;entryY=0.5;entryDx=0;entryDy=0;" edge="1" parent="1" source="Ab6jjdtZbgk7P4JCKkUc-33" target="Ab6jjdtZbgk7P4JCKkUc-35">
          <mxGeometry width="160" relative="1" as="geometry">
            <mxPoint x="531.25" y="322.5" as="sourcePoint" />
            <mxPoint x="427.5" y="322.5" as="targetPoint" />
            <Array as="points">
              <mxPoint x="580" y="453" />
            </Array>
          </mxGeometry>
        </mxCell>
        <mxCell id="Ab6jjdtZbgk7P4JCKkUc-37" value="" style="endArrow=open;endFill=1;endSize=12;html=1;rounded=0;fontSize=9;" edge="1" parent="1" source="Ab6jjdtZbgk7P4JCKkUc-35" target="Ab6jjdtZbgk7P4JCKkUc-38">
          <mxGeometry width="160" relative="1" as="geometry">
            <mxPoint x="590" y="425" as="sourcePoint" />
            <mxPoint x="427.5" y="462.5" as="targetPoint" />
            <Array as="points">
              <mxPoint x="359" y="493" />
            </Array>
          </mxGeometry>
        </mxCell>
      </root>
    </mxGraphModel>
  </diagram>
</mxfile>
